<?xml version="1.0" standalone="no"?>
<!DOCTYPE svg PUBLIC "-//W3C//DTD SVG 20010904//EN"
 "http://www.w3.org/TR/2001/REC-SVG-20010904/DTD/svg10.dtd">
<svg version="1.0" xmlns="http://www.w3.org/2000/svg"
 width="512.000000pt" height="512.000000pt" viewBox="0 0 512.000000 512.000000"
 preserveAspectRatio="xMidYMid meet">
<metadata>
Created by potrace 1.14, written by Peter Selinger 2001-2017
</metadata>
<g transform="translate(0.000000,512.000000) scale(0.100000,-0.100000)"
fill="#000000" stroke="none">
<path d="M0 4780 c0 -187 2 -340 5 -340 2 0 33 20 69 45 89 62 251 138 373
174 433 128 1082 74 1629 -136 l94 -36 0 -273 c0 -236 -2 -274 -15 -274 -8 0
-49 24 -91 54 -178 128 -466 245 -730 296 -547 105 -1010 -21 -1158 -315 -89
-178 -44 -447 96 -569 123 -107 257 -148 788 -241 378 -66 626 -132 774 -207
334 -168 476 -398 476 -773 0 -204 -49 -367 -163 -537 -164 -246 -482 -435
-847 -504 -134 -25 -567 -31 -749 -10 -183 22 -438 75 -536 112 -13 5 -15 -67
-15 -620 l0 -626 2560 0 2560 0 0 2560 0 2560 -2560 0 -2560 0 0 -340z m4055
-583 c59 -30 104 -75 136 -137 20 -37 24 -60 24 -130 0 -76 -3 -91 -30 -139
-37 -66 -92 -115 -162 -141 -140 -52 -294 7 -368 141 -27 48 -30 63 -30 139 0
70 4 93 24 130 41 79 105 133 191 161 49 16 162 4 215 -24z m-8 -1389 c137
-64 206 -228 157 -371 -21 -62 -96 -144 -159 -173 -70 -33 -180 -33 -250 0
-135 63 -208 230 -160 367 61 171 251 253 412 177z m-21 -1385 c74 -25 157
-113 180 -188 43 -149 -20 -296 -154 -362 -81 -40 -183 -40 -264 0 -192 94
-225 353 -63 495 26 23 65 47 88 56 57 20 153 20 213 -1z"/>
<path d="M0 2370 l0 -621 87 -40 c124 -57 328 -124 474 -154 169 -36 450 -45
618 -21 321 48 543 188 622 394 27 70 37 231 20 313 -17 83 -62 169 -113 215
-125 116 -291 170 -759 249 -344 57 -440 78 -576 120 -127 40 -222 81 -304
130 -31 19 -59 35 -63 35 -3 0 -6 -279 -6 -620z"/>
</g>
</svg>
