<?xml version="1.0" encoding="UTF-8" standalone="no"?>
<!-- Created with Inkscape (http://www.inkscape.org/) -->

<svg
   width="210mm"
   height="297mm"
   viewBox="0 0 210 297"
   version="1.1"
   id="svg5"
   xmlns="http://www.w3.org/2000/svg"
   xmlns:svg="http://www.w3.org/2000/svg">
  <defs
     id="defs2" />
  <g
     id="layer1">
    <path
       id="path148"
       style="fill:#1662a8;fill-opacity:1;stroke:none;stroke-width:1.18337px;stroke-linecap:butt;stroke-linejoin:miter;stroke-opacity:1"
       d="M 0.97851562 0.24414062 L 0.97851562 121.20117 L 154.54883 0.24414062 L 0.97851562 0.24414062 z "
       transform="scale(0.26458333)" />
    <path
       id="path394"
       style="fill:#2e99d7;fill-opacity:1;stroke:none;stroke-width:0.999999px;stroke-linecap:butt;stroke-linejoin:miter;stroke-opacity:1"
       d="M 152.21875 0.24414062 L 6.5664062 115.77734 L 85.363281 239.50391 L 170.1582 0.24414062 L 152.21875 0.24414062 z "
       transform="scale(0.26458333)" />
    <path
       id="path429"
       style="fill:#1a5da2;fill-opacity:1;stroke:none;stroke-width:0.999999px;stroke-linecap:butt;stroke-linejoin:miter;stroke-opacity:1"
       d="M 170.1582 0.24414062 L 85.363281 239.50391 L 294.23242 165.68945 L 189.68359 0.24414062 L 170.1582 0.24414062 z "
       transform="scale(0.26458333)" />
    <path
       id="path431"
       style="fill:#198dd0;fill-opacity:1;stroke:none;stroke-width:1.00743px;stroke-linecap:butt;stroke-linejoin:miter;stroke-opacity:1"
       d="M 189.21484 0.24414062 L 293.17383 167.1543 L 471.16211 0.48828125 L 424.47852 0.24414062 L 189.21484 0.24414062 z "
       transform="scale(0.26458333)" />
    <path
       id="path433"
       style="fill:#1578cd;fill-opacity:1;stroke:none;stroke-width:0.999999px;stroke-linecap:butt;stroke-linejoin:miter;stroke-opacity:1"
       d="M 478.61523 0.24414062 L 471.16211 0.48828125 L 294.23242 165.68945 L 459.91992 142.7168 L 500.76562 0.24414062 L 478.61523 0.24414062 z "
       transform="scale(0.26458333)" />
    <path
       id="path435"
       style="fill:#d1cfce;fill-opacity:1;stroke:none;stroke-width:0.999999px;stroke-linecap:butt;stroke-linejoin:miter;stroke-opacity:1"
       d="M 500.76562 0.24414062 L 459.91992 142.7168 L 624.14258 94.818359 L 547.30078 0.24414062 L 500.76562 0.24414062 z "
       transform="scale(0.26458333)" />
    <path
       id="path437"
       style="fill:#1a5ca1;fill-opacity:1;stroke:none;stroke-width:0.999999px;stroke-linecap:butt;stroke-linejoin:miter;stroke-opacity:1"
       d="M 547.30078 0.24414062 L 624.14258 94.818359 L 698.64258 0.24414062 L 547.30078 0.24414062 z "
       transform="scale(0.26458333)" />
    <path
       id="path439"
       style="fill:#158bce;fill-opacity:1;stroke:none;stroke-width:1.12762px;stroke-linecap:butt;stroke-linejoin:miter;stroke-opacity:1"
       d="M 695.06055 0.24414062 L 622.63086 96.818359 L 796.26953 96.296875 L 796.26953 0.24414062 L 695.06055 0.24414062 z "
       transform="scale(0.26458333)" />
    <path
       id="path441"
       style="fill:#0d86ca;fill-opacity:1;stroke:none;stroke-width:0.999999px;stroke-linecap:butt;stroke-linejoin:miter;stroke-opacity:1"
       d="M 795.20703 94.330078 L 624.14258 94.818359 L 583.57617 277.125 L 796.18555 130.98633 L 795.20703 94.330078 z "
       transform="scale(0.26458333)" />
    <path
       id="path443"
       style="fill:#205497;fill-opacity:1;stroke:none;stroke-width:0.999999px;stroke-linecap:butt;stroke-linejoin:miter;stroke-opacity:1"
       d="M 796.18555 130.98633 L 583.57617 277.125 L 794.71875 289.34375 L 796.18555 130.98633 z "
       transform="scale(0.26458333)" />
    <path
       id="path445"
       style="fill:#0783c7;fill-opacity:1;stroke:none;stroke-width:0.999999px;stroke-linecap:butt;stroke-linejoin:miter;stroke-opacity:1"
       d="M 583.57617 277.125 L 696.9668 392.47266 L 796.26953 323.76172 L 796.26953 298.50586 L 794.71875 289.34375 L 583.57617 277.125 z "
       transform="scale(0.26458333)" />
    <path
       style="fill:#1e579b;stroke:none;stroke-width:0.264583px;stroke-linecap:butt;stroke-linejoin:miter;stroke-opacity:1;fill-opacity:1"
       d="M 154.40443,73.322706 121.68724,37.760547 165.13773,25.087487 Z"
       id="path447" />
    <path
       style="fill:#188dcf;stroke:none;stroke-width:0.264583px;stroke-linecap:butt;stroke-linejoin:miter;stroke-opacity:1;fill-opacity:1"
       d="M 121.68724,37.760547 110.30735,96.858388 154.40443,73.322706 Z"
       id="path449" />
    <path
       style="fill:#185ea4;stroke:none;stroke-width:0.264583px;stroke-linecap:butt;stroke-linejoin:miter;stroke-opacity:1;fill-opacity:1"
       d="M 77.848798,43.838444 110.30735,96.858388 121.68724,37.760547 Z"
       id="path451" />
    <path
       style="fill:#3aa2df;stroke:none;stroke-width:0.264583px;stroke-linecap:butt;stroke-linejoin:miter;stroke-opacity:1;fill-opacity:1"
       d="m 77.848798,43.838444 -11.638524,48.364534 44.097076,4.65541 z"
       id="path453" />
    <path
       style="fill:#2092d3;stroke:none;stroke-width:0.264583px;stroke-linecap:butt;stroke-linejoin:miter;stroke-opacity:1;fill-opacity:1"
       d="M 66.210274,92.202978 22.585899,63.368533 77.848798,43.838444 Z"
       id="path455" />
    <path
       id="path457"
       style="fill:#1b579a;fill-opacity:0.984314;stroke:none;stroke-width:0.999999px;stroke-linecap:butt;stroke-linejoin:miter;stroke-opacity:1"
       d="M 1.3828125 111.62891 L 0.97851562 133.16797 L 0.97851562 262.76562 L 85.363281 239.50391 L 6.5664062 115.77734 L 1.3828125 111.62891 z "
       transform="scale(0.26458333)" />
    <path
       id="path459"
       style="fill:#2f9bda;fill-opacity:0.972549;stroke:none;stroke-width:0.999999px;stroke-linecap:butt;stroke-linejoin:miter;stroke-opacity:1"
       d="M 85.363281 239.50391 L 0.97851562 262.76562 L 0.97851562 369.08008 L 63.048828 393.44922 L 85.363281 239.50391 z "
       transform="scale(0.26458333)" />
    <path
       id="path461"
       style="fill:#b8babc;fill-opacity:0.752941;stroke:none;stroke-width:0.999999px;stroke-linecap:butt;stroke-linejoin:miter;stroke-opacity:1"
       d="M 0.97851562 369.08008 L 0.97851562 426.39453 L 63.048828 393.44922 L 0.97851562 369.08008 z "
       transform="scale(0.26458333)" />
    <path
       style="fill:#cecccb;stroke:none;stroke-width:0.264583px;stroke-linecap:butt;stroke-linejoin:miter;stroke-opacity:1;fill-opacity:1"
       d="M 22.585899,63.368533 16.681885,104.10014 66.210274,92.202978 Z"
       id="path463" />
    <path
       style="fill:#1f5599;stroke:none;stroke-width:0.264583px;stroke-linecap:butt;stroke-linejoin:miter;stroke-opacity:1;fill-opacity:1"
       d="m 16.681885,104.10014 21.20798,49.91634 28.320409,-61.813502 z"
       id="path465" />
    <path
       id="path467"
       style="fill:#e9eaea;fill-opacity:1;stroke:none;stroke-width:0.999999px;stroke-linecap:butt;stroke-linejoin:miter;stroke-opacity:1"
       d="M 63.048828 393.44922 L 0.97851562 426.39453 L 0.97851562 553.0918 L 143.20508 582.10938 L 63.048828 393.44922 z "
       transform="scale(0.26458333)" />
    <path
       id="path469"
       style="fill:#cbcdcf;fill-opacity:1;stroke:none;stroke-width:0.999999px;stroke-linecap:butt;stroke-linejoin:miter;stroke-opacity:1"
       d="M 0.97851562 553.0918 L 0.97851562 663.86523 L 143.20508 582.10938 L 0.97851562 553.0918 z "
       transform="scale(0.26458333)" />
    <path
       id="path471"
       style="fill:#e9eaea;fill-opacity:1;stroke:none;stroke-width:0.999999px;stroke-linecap:butt;stroke-linejoin:miter;stroke-opacity:1"
       d="M 143.20508 582.10938 L 0.97851562 663.86523 L 0.97851562 799.32031 L 143.20508 582.10938 z "
       transform="scale(0.26458333)" />
    <path
       id="path473"
       style="fill:#319bdb;fill-opacity:1;stroke:none;stroke-width:0.999999px;stroke-linecap:butt;stroke-linejoin:miter;stroke-opacity:1"
       d="M 143.20508 582.10938 L 0.97851562 799.32031 L 0.97851562 822.00586 L 256.59766 745.84375 L 143.20508 582.10938 z "
       transform="scale(0.26458333)" />
    <path
       id="path475"
       style="fill:#dddbdb;fill-opacity:1;stroke:none;stroke-width:0.999999px;stroke-linecap:butt;stroke-linejoin:miter;stroke-opacity:1"
       d="M 256.59766 745.84375 L 0.97851562 822.00586 L 0.97851562 839.67578 L 227.27148 989.24414 L 256.59766 745.84375 z "
       transform="scale(0.26458333)" />
    <path
       id="path477"
       style="fill:#e9eaea;fill-opacity:1;stroke:none;stroke-width:0.999999px;stroke-linecap:butt;stroke-linejoin:miter;stroke-opacity:1"
       d="M 0.97851562 839.67578 L 0.97851562 1090.584 L 1.1796875 1125.1289 L 40.566406 1125.6074 L 227.27148 989.24414 L 0.97851562 839.67578 z "
       transform="scale(0.26458333)" />
    <path
       id="path479"
       style="fill:#1e579c;fill-opacity:1;stroke:none;stroke-width:0.999999px;stroke-linecap:butt;stroke-linejoin:miter;stroke-opacity:1"
       d="M 696.9668 392.47266 L 665.19727 591.39648 L 796.26953 644.68945 L 796.26953 545.89844 L 696.9668 392.47266 z "
       transform="scale(0.26458333)" />
    <path
       id="path481"
       style="fill:#47aee7;fill-opacity:1;stroke:none;stroke-width:0.999999px;stroke-linecap:butt;stroke-linejoin:miter;stroke-opacity:1"
       d="M 796.26953 323.76172 L 696.9668 392.47266 L 796.26953 545.89844 L 796.26953 323.76172 z "
       transform="scale(0.26458333)" />
  </g>
</svg>
